<mxfile host="Electron" agent="Mozilla/5.0 (Windows NT 10.0; Win64; x64) AppleWebKit/537.36 (KHTML, like Gecko) draw.io/26.1.1 Chrome/132.0.6834.210 Electron/34.3.3 Safari/537.36" version="26.1.1" pages="2">
  <diagram name="ДиагИсп" id="UNRto6S_DMS4T6OnY8ra">
    <mxGraphModel dx="5349" dy="1434" grid="1" gridSize="10" guides="1" tooltips="1" connect="1" arrows="1" fold="1" page="1" pageScale="1" pageWidth="3300" pageHeight="2339" math="0" shadow="0">
      <root>
        <mxCell id="oB7_KXZ4NShmShfg58jk-0" />
        <mxCell id="oB7_KXZ4NShmShfg58jk-1" parent="oB7_KXZ4NShmShfg58jk-0" />
        <mxCell id="NdvyMEOKOE-2ZhL13kgw-0" value="&lt;span style=&quot;text-wrap-mode: nowrap;&quot;&gt;ДИАГРАММА ВАРИАНТОВ ИСПОЛЬЗОВАНИЯ&lt;/span&gt;" style="rounded=0;whiteSpace=wrap;html=1;fillColor=none;strokeColor=none;fontFamily=Times New Roman;fontSize=36;strokeWidth=3;" parent="oB7_KXZ4NShmShfg58jk-1" vertex="1">
          <mxGeometry x="-2570.05" y="90" width="1640" height="70" as="geometry" />
        </mxCell>
        <mxCell id="i2Dvd7qV98ovRYp389tE-0" value="Администратор" style="shape=umlActor;verticalLabelPosition=bottom;verticalAlign=top;html=1;outlineConnect=0;fontSize=36;strokeWidth=3;fontColor=#000000;fontFamily=Times New Roman;" parent="oB7_KXZ4NShmShfg58jk-1" vertex="1">
          <mxGeometry x="-1880" y="560" width="70" height="130" as="geometry" />
        </mxCell>
        <mxCell id="i2Dvd7qV98ovRYp389tE-4" value="Оператор" style="shape=umlActor;verticalLabelPosition=bottom;verticalAlign=top;html=1;outlineConnect=0;fontSize=36;strokeWidth=3;fontColor=#000000;fontFamily=Times New Roman;" parent="oB7_KXZ4NShmShfg58jk-1" vertex="1">
          <mxGeometry x="-1650" y="1180" width="70" height="130" as="geometry" />
        </mxCell>
        <mxCell id="i2Dvd7qV98ovRYp389tE-7" value="Регистрация пользователей &lt;br&gt;и управление их&amp;nbsp;&lt;span style=&quot;background-color: transparent;&quot;&gt;ролями&lt;/span&gt;" style="ellipse;whiteSpace=wrap;html=1;fontSize=36;strokeWidth=3;fontColor=#000000;fontFamily=Times New Roman;" parent="oB7_KXZ4NShmShfg58jk-1" vertex="1">
          <mxGeometry x="-1520" y="680" width="470" height="150" as="geometry" />
        </mxCell>
        <mxCell id="i2Dvd7qV98ovRYp389tE-8" value="Управление площадками и подразделениями" style="ellipse;whiteSpace=wrap;html=1;fontSize=36;strokeWidth=3;fontColor=#000000;fontFamily=Times New Roman;" parent="oB7_KXZ4NShmShfg58jk-1" vertex="1">
          <mxGeometry x="-800" y="550" width="500" height="120" as="geometry" />
        </mxCell>
        <mxCell id="i2Dvd7qV98ovRYp389tE-9" value="Управление параметрами методик" style="ellipse;whiteSpace=wrap;html=1;fontSize=36;strokeWidth=3;fontColor=#000000;fontFamily=Times New Roman;" parent="oB7_KXZ4NShmShfg58jk-1" vertex="1">
          <mxGeometry x="-690" y="1000" width="480" height="120" as="geometry" />
        </mxCell>
        <mxCell id="i2Dvd7qV98ovRYp389tE-10" value="Управление перечнем загрязняющих веществ" style="ellipse;whiteSpace=wrap;html=1;fontSize=36;strokeWidth=3;fontColor=#000000;fontFamily=Times New Roman;" parent="oB7_KXZ4NShmShfg58jk-1" vertex="1">
          <mxGeometry x="-1260" y="1170" width="480" height="120" as="geometry" />
        </mxCell>
        <mxCell id="i2Dvd7qV98ovRYp389tE-15" value="Просмотр статистики" style="ellipse;whiteSpace=wrap;html=1;fontSize=36;strokeWidth=3;fontColor=#000000;strokeColor=#000000;fontFamily=Times New Roman;" parent="oB7_KXZ4NShmShfg58jk-1" vertex="1">
          <mxGeometry x="-2970" y="800" width="420" height="120" as="geometry" />
        </mxCell>
        <mxCell id="i2Dvd7qV98ovRYp389tE-25" style="rounded=0;orthogonalLoop=1;jettySize=auto;html=1;exitX=1;exitY=0.5;exitDx=0;exitDy=0;entryX=0;entryY=0.5;entryDx=0;entryDy=0;strokeWidth=3;dashed=1;jumpSize=6;endSize=16;endArrow=open;endFill=0;fontColor=#000000;fontSize=36;fontFamily=Times New Roman;" parent="oB7_KXZ4NShmShfg58jk-1" source="i2Dvd7qV98ovRYp389tE-23" target="i2Dvd7qV98ovRYp389tE-8" edge="1">
          <mxGeometry relative="1" as="geometry" />
        </mxCell>
        <mxCell id="i2Dvd7qV98ovRYp389tE-28" value="&amp;lt;&amp;lt; include &amp;gt;&amp;gt;" style="edgeLabel;html=1;align=center;verticalAlign=middle;resizable=0;points=[];fontFamily=Times New Roman;fontSize=32;fontColor=#000000;labelBackgroundColor=default;" parent="i2Dvd7qV98ovRYp389tE-25" vertex="1" connectable="0">
          <mxGeometry x="-0.1064" y="-4" relative="1" as="geometry">
            <mxPoint x="6" y="-15" as="offset" />
          </mxGeometry>
        </mxCell>
        <mxCell id="i2Dvd7qV98ovRYp389tE-23" value="Управление справочниками" style="ellipse;whiteSpace=wrap;html=1;fontSize=36;strokeWidth=3;fontColor=#000000;fontFamily=Times New Roman;" parent="oB7_KXZ4NShmShfg58jk-1" vertex="1">
          <mxGeometry x="-1450" y="910" width="420" height="120" as="geometry" />
        </mxCell>
        <mxCell id="i2Dvd7qV98ovRYp389tE-26" style="rounded=0;orthogonalLoop=1;jettySize=auto;html=1;exitX=1;exitY=0.5;exitDx=0;exitDy=0;entryX=0;entryY=0.5;entryDx=0;entryDy=0;strokeWidth=3;dashed=1;jumpSize=16;endSize=16;endArrow=open;endFill=0;fontColor=#000000;fontSize=36;fontFamily=Times New Roman;" parent="oB7_KXZ4NShmShfg58jk-1" source="i2Dvd7qV98ovRYp389tE-23" target="i2Dvd7qV98ovRYp389tE-9" edge="1">
          <mxGeometry relative="1" as="geometry" />
        </mxCell>
        <mxCell id="i2Dvd7qV98ovRYp389tE-31" value="&lt;span&gt;&amp;lt;&amp;lt; include &amp;gt;&amp;gt;&lt;/span&gt;" style="edgeLabel;html=1;align=center;verticalAlign=middle;resizable=0;points=[];fontFamily=Times New Roman;fontSize=32;fontColor=#000000;labelBackgroundColor=default;" parent="i2Dvd7qV98ovRYp389tE-26" vertex="1" connectable="0">
          <mxGeometry x="0.0118" y="-5" relative="1" as="geometry">
            <mxPoint x="5" y="-15" as="offset" />
          </mxGeometry>
        </mxCell>
        <mxCell id="i2Dvd7qV98ovRYp389tE-27" style="rounded=0;orthogonalLoop=1;jettySize=auto;html=1;exitX=1;exitY=0.5;exitDx=0;exitDy=0;entryX=0.5;entryY=0;entryDx=0;entryDy=0;strokeWidth=3;dashed=1;jumpSize=16;endSize=16;endArrow=open;endFill=0;fontColor=#000000;fontSize=36;fontFamily=Times New Roman;" parent="oB7_KXZ4NShmShfg58jk-1" source="i2Dvd7qV98ovRYp389tE-23" target="i2Dvd7qV98ovRYp389tE-10" edge="1">
          <mxGeometry relative="1" as="geometry" />
        </mxCell>
        <mxCell id="i2Dvd7qV98ovRYp389tE-32" value="&lt;span&gt;&amp;lt;&amp;lt; include &amp;gt;&amp;gt;&lt;/span&gt;" style="edgeLabel;html=1;align=center;verticalAlign=middle;resizable=0;points=[];fontFamily=Times New Roman;fontSize=32;fontColor=#000000;labelBackgroundColor=default;" parent="i2Dvd7qV98ovRYp389tE-27" vertex="1" connectable="0">
          <mxGeometry x="0.1682" y="-4" relative="1" as="geometry">
            <mxPoint x="8" y="-8" as="offset" />
          </mxGeometry>
        </mxCell>
        <mxCell id="i2Dvd7qV98ovRYp389tE-33" value="" style="endArrow=block;html=1;rounded=0;fontSize=36;strokeWidth=3;endFill=0;arcSize=30;flowAnimation=0;endWidth=10.4;endSize=16;fontColor=#FF3333;fontFamily=Times New Roman;" parent="oB7_KXZ4NShmShfg58jk-1" edge="1">
          <mxGeometry width="50" height="50" relative="1" as="geometry">
            <mxPoint x="-1840" y="750" as="sourcePoint" />
            <mxPoint x="-1630" y="1170" as="targetPoint" />
          </mxGeometry>
        </mxCell>
        <mxCell id="i2Dvd7qV98ovRYp389tE-34" value="" style="endArrow=open;html=1;rounded=0;fontSize=36;strokeWidth=3;endFill=0;arcSize=30;flowAnimation=0;entryX=0;entryY=0.5;entryDx=0;entryDy=0;endSize=16;startFill=0;fontColor=#000000;fontFamily=Times New Roman;" parent="oB7_KXZ4NShmShfg58jk-1" target="i2Dvd7qV98ovRYp389tE-7" edge="1">
          <mxGeometry width="50" height="50" relative="1" as="geometry">
            <mxPoint x="-1780" y="630" as="sourcePoint" />
            <mxPoint x="-1580" y="840" as="targetPoint" />
          </mxGeometry>
        </mxCell>
        <mxCell id="i2Dvd7qV98ovRYp389tE-36" value="" style="endArrow=open;html=1;rounded=0;fontSize=36;strokeWidth=3;endFill=0;arcSize=30;flowAnimation=0;entryX=0;entryY=0.5;entryDx=0;entryDy=0;endSize=16;startFill=0;fontColor=#000000;fontFamily=Times New Roman;" parent="oB7_KXZ4NShmShfg58jk-1" target="i2Dvd7qV98ovRYp389tE-23" edge="1">
          <mxGeometry width="50" height="50" relative="1" as="geometry">
            <mxPoint x="-1780" y="630" as="sourcePoint" />
            <mxPoint x="-1580" y="840" as="targetPoint" />
          </mxGeometry>
        </mxCell>
        <mxCell id="i2Dvd7qV98ovRYp389tE-59" value="" style="endArrow=open;html=1;rounded=0;fontSize=36;strokeWidth=3;endFill=0;arcSize=30;flowAnimation=0;entryX=0;entryY=0.5;entryDx=0;entryDy=0;endSize=16;startFill=0;fontColor=#FF3333;fontFamily=Times New Roman;" parent="oB7_KXZ4NShmShfg58jk-1" target="B6wSNnZ_UUKkF3Okx7MM-9" edge="1">
          <mxGeometry width="50" height="50" relative="1" as="geometry">
            <mxPoint x="-1560" y="1300" as="sourcePoint" />
            <mxPoint x="-1340" y="1030" as="targetPoint" />
          </mxGeometry>
        </mxCell>
        <mxCell id="i2Dvd7qV98ovRYp389tE-71" value="" style="endArrow=open;html=1;rounded=0;fontSize=36;strokeWidth=3;endFill=0;arcSize=30;flowAnimation=0;entryX=1;entryY=0.5;entryDx=0;entryDy=0;endSize=16;startFill=0;fontColor=#FF3333;fontFamily=Times New Roman;" parent="oB7_KXZ4NShmShfg58jk-1" target="i2Dvd7qV98ovRYp389tE-15" edge="1">
          <mxGeometry width="50" height="50" relative="1" as="geometry">
            <mxPoint x="-2210" y="950" as="sourcePoint" />
            <mxPoint x="-2250" y="720" as="targetPoint" />
          </mxGeometry>
        </mxCell>
        <mxCell id="i2Dvd7qV98ovRYp389tE-72" value="" style="endArrow=open;html=1;rounded=0;fontSize=36;strokeWidth=3;endFill=0;arcSize=30;flowAnimation=0;entryX=0.758;entryY=0.989;entryDx=0;entryDy=0;endSize=16;startFill=0;entryPerimeter=0;fontColor=#FF3333;fontFamily=Times New Roman;" parent="oB7_KXZ4NShmShfg58jk-1" target="i2Dvd7qV98ovRYp389tE-15" edge="1">
          <mxGeometry width="50" height="50" relative="1" as="geometry">
            <mxPoint x="-2050" y="1310" as="sourcePoint" />
            <mxPoint x="-2250" y="720" as="targetPoint" />
          </mxGeometry>
        </mxCell>
        <mxCell id="B6wSNnZ_UUKkF3Okx7MM-0" value="Управление режимами" style="ellipse;whiteSpace=wrap;html=1;fontSize=36;strokeWidth=3;fontColor=#000000;fontFamily=Times New Roman;" parent="oB7_KXZ4NShmShfg58jk-1" vertex="1">
          <mxGeometry x="-690" y="840" width="480" height="120" as="geometry" />
        </mxCell>
        <mxCell id="B6wSNnZ_UUKkF3Okx7MM-1" style="rounded=0;orthogonalLoop=1;jettySize=auto;html=1;exitX=1;exitY=0.5;exitDx=0;exitDy=0;entryX=0;entryY=0.5;entryDx=0;entryDy=0;strokeWidth=3;dashed=1;jumpSize=16;endSize=16;endArrow=open;endFill=0;fontColor=#000000;fontSize=36;fontFamily=Times New Roman;" parent="oB7_KXZ4NShmShfg58jk-1" source="i2Dvd7qV98ovRYp389tE-23" target="B6wSNnZ_UUKkF3Okx7MM-0" edge="1">
          <mxGeometry relative="1" as="geometry" />
        </mxCell>
        <mxCell id="B6wSNnZ_UUKkF3Okx7MM-2" value="&lt;span&gt;&amp;lt;&amp;lt; include &amp;gt;&amp;gt;&lt;/span&gt;" style="edgeLabel;html=1;align=center;verticalAlign=middle;resizable=0;points=[];fontFamily=Times New Roman;fontSize=32;fontColor=#000000;labelBackgroundColor=default;" parent="B6wSNnZ_UUKkF3Okx7MM-1" vertex="1" connectable="0">
          <mxGeometry x="0.0118" y="-5" relative="1" as="geometry">
            <mxPoint x="5" y="-15" as="offset" />
          </mxGeometry>
        </mxCell>
        <mxCell id="B6wSNnZ_UUKkF3Okx7MM-5" value="Управление методиками &lt;br&gt;и их параметрами" style="ellipse;whiteSpace=wrap;html=1;fontSize=36;strokeWidth=3;fontColor=#000000;fontFamily=Times New Roman;" parent="oB7_KXZ4NShmShfg58jk-1" vertex="1">
          <mxGeometry x="-730" y="700" width="500" height="120" as="geometry" />
        </mxCell>
        <mxCell id="B6wSNnZ_UUKkF3Okx7MM-6" style="rounded=0;orthogonalLoop=1;jettySize=auto;html=1;exitX=1;exitY=0.5;exitDx=0;exitDy=0;entryX=0;entryY=0.5;entryDx=0;entryDy=0;strokeWidth=2;dashed=1;jumpSize=16;endSize=16;endArrow=open;endFill=0;fontColor=#000000;fontSize=36;fontFamily=Times New Roman;" parent="oB7_KXZ4NShmShfg58jk-1" source="i2Dvd7qV98ovRYp389tE-23" target="B6wSNnZ_UUKkF3Okx7MM-5" edge="1">
          <mxGeometry relative="1" as="geometry" />
        </mxCell>
        <mxCell id="B6wSNnZ_UUKkF3Okx7MM-7" value="&lt;span&gt;&amp;lt;&amp;lt; include &amp;gt;&amp;gt;&lt;/span&gt;" style="edgeLabel;html=1;align=center;verticalAlign=middle;resizable=0;points=[];fontFamily=Times New Roman;fontSize=32;fontColor=#000000;labelBackgroundColor=default;" parent="B6wSNnZ_UUKkF3Okx7MM-6" vertex="1" connectable="0">
          <mxGeometry x="0.1682" y="-4" relative="1" as="geometry">
            <mxPoint x="8" y="-8" as="offset" />
          </mxGeometry>
        </mxCell>
        <mxCell id="B6wSNnZ_UUKkF3Okx7MM-8" value="Учёт выбросов загрязняющих веществ" style="ellipse;whiteSpace=wrap;html=1;fontSize=36;strokeWidth=3;fontColor=#000000;fontFamily=Times New Roman;" parent="oB7_KXZ4NShmShfg58jk-1" vertex="1">
          <mxGeometry x="-1380" y="1550" width="420" height="120" as="geometry" />
        </mxCell>
        <mxCell id="B6wSNnZ_UUKkF3Okx7MM-9" value="Управление данными источников выбросов" style="ellipse;whiteSpace=wrap;html=1;fontSize=36;strokeWidth=3;fontColor=#000000;fontFamily=Times New Roman;" parent="oB7_KXZ4NShmShfg58jk-1" vertex="1">
          <mxGeometry x="-675" y="1260" width="370" height="140" as="geometry" />
        </mxCell>
        <mxCell id="B6wSNnZ_UUKkF3Okx7MM-10" style="rounded=0;orthogonalLoop=1;jettySize=auto;html=1;exitX=1;exitY=0.5;exitDx=0;exitDy=0;entryX=0.5;entryY=0;entryDx=0;entryDy=0;strokeWidth=3;dashed=1;jumpSize=16;endSize=16;endArrow=open;endFill=0;fontColor=#000000;fontSize=36;fontFamily=Times New Roman;" parent="oB7_KXZ4NShmShfg58jk-1" source="i2Dvd7qV98ovRYp389tE-23" target="B6wSNnZ_UUKkF3Okx7MM-9" edge="1">
          <mxGeometry relative="1" as="geometry" />
        </mxCell>
        <mxCell id="B6wSNnZ_UUKkF3Okx7MM-11" value="&lt;span&gt;&amp;lt;&amp;lt; include &amp;gt;&amp;gt;&lt;/span&gt;" style="edgeLabel;html=1;align=center;verticalAlign=middle;resizable=0;points=[];fontFamily=Times New Roman;fontSize=32;fontColor=#000000;labelBackgroundColor=default;" parent="B6wSNnZ_UUKkF3Okx7MM-10" vertex="1" connectable="0">
          <mxGeometry x="0.0118" y="-5" relative="1" as="geometry">
            <mxPoint x="38" y="33" as="offset" />
          </mxGeometry>
        </mxCell>
        <mxCell id="B6wSNnZ_UUKkF3Okx7MM-12" value="Ведение времени работы источников" style="ellipse;whiteSpace=wrap;html=1;fontSize=36;strokeWidth=3;fontColor=#000000;fontFamily=Times New Roman;" parent="oB7_KXZ4NShmShfg58jk-1" vertex="1">
          <mxGeometry x="-790" y="1520" width="420" height="120" as="geometry" />
        </mxCell>
        <mxCell id="B6wSNnZ_UUKkF3Okx7MM-13" value="Настройка системы" style="ellipse;whiteSpace=wrap;html=1;fontSize=36;strokeWidth=3;fontColor=#000000;fontFamily=Times New Roman;" parent="oB7_KXZ4NShmShfg58jk-1" vertex="1">
          <mxGeometry x="-1470" y="470" width="420" height="120" as="geometry" />
        </mxCell>
        <mxCell id="B6wSNnZ_UUKkF3Okx7MM-14" value="" style="endArrow=open;html=1;rounded=0;fontSize=36;strokeWidth=3;endFill=0;arcSize=30;flowAnimation=0;entryX=0;entryY=0.5;entryDx=0;entryDy=0;endSize=16;startFill=0;fontColor=#000000;fontFamily=Times New Roman;" parent="oB7_KXZ4NShmShfg58jk-1" target="B6wSNnZ_UUKkF3Okx7MM-13" edge="1">
          <mxGeometry width="50" height="50" relative="1" as="geometry">
            <mxPoint x="-1780" y="630" as="sourcePoint" />
            <mxPoint x="-1580" y="840" as="targetPoint" />
          </mxGeometry>
        </mxCell>
        <mxCell id="B6wSNnZ_UUKkF3Okx7MM-15" value="Обеспечение работоспособности приложения" style="ellipse;whiteSpace=wrap;html=1;fontSize=36;strokeWidth=3;fontColor=#000000;fontFamily=Times New Roman;" parent="oB7_KXZ4NShmShfg58jk-1" vertex="1">
          <mxGeometry x="-840" y="360" width="480" height="120" as="geometry" />
        </mxCell>
        <mxCell id="B6wSNnZ_UUKkF3Okx7MM-16" style="rounded=0;orthogonalLoop=1;jettySize=auto;html=1;exitX=1;exitY=0.5;exitDx=0;exitDy=0;entryX=0;entryY=0.5;entryDx=0;entryDy=0;strokeWidth=3;dashed=1;jumpSize=6;endSize=16;endArrow=open;endFill=0;fontColor=#000000;fontSize=36;fontFamily=Times New Roman;" parent="oB7_KXZ4NShmShfg58jk-1" source="B6wSNnZ_UUKkF3Okx7MM-13" target="B6wSNnZ_UUKkF3Okx7MM-15" edge="1">
          <mxGeometry relative="1" as="geometry" />
        </mxCell>
        <mxCell id="B6wSNnZ_UUKkF3Okx7MM-17" value="&amp;lt;&amp;lt; extend &amp;gt;&amp;gt;" style="edgeLabel;html=1;align=center;verticalAlign=middle;resizable=0;points=[];fontFamily=Times New Roman;fontSize=32;fontColor=#000000;labelBackgroundColor=default;" parent="B6wSNnZ_UUKkF3Okx7MM-16" vertex="1" connectable="0">
          <mxGeometry x="-0.1064" y="-4" relative="1" as="geometry">
            <mxPoint x="3" y="-9" as="offset" />
          </mxGeometry>
        </mxCell>
        <mxCell id="B6wSNnZ_UUKkF3Okx7MM-18" value="" style="endArrow=open;html=1;rounded=0;fontSize=36;strokeWidth=3;endFill=0;arcSize=30;flowAnimation=0;entryX=0;entryY=0.5;entryDx=0;entryDy=0;endSize=16;startFill=0;fontColor=#FF3333;fontFamily=Times New Roman;" parent="oB7_KXZ4NShmShfg58jk-1" target="B6wSNnZ_UUKkF3Okx7MM-12" edge="1">
          <mxGeometry width="50" height="50" relative="1" as="geometry">
            <mxPoint x="-1560" y="1300" as="sourcePoint" />
            <mxPoint x="-1340" y="1030" as="targetPoint" />
          </mxGeometry>
        </mxCell>
        <mxCell id="B6wSNnZ_UUKkF3Okx7MM-19" value="" style="endArrow=open;html=1;rounded=0;fontSize=36;strokeWidth=3;endFill=0;arcSize=30;flowAnimation=0;entryX=0;entryY=0.5;entryDx=0;entryDy=0;endSize=16;startFill=0;fontColor=#FF3333;fontFamily=Times New Roman;" parent="oB7_KXZ4NShmShfg58jk-1" target="i2Dvd7qV98ovRYp389tE-10" edge="1">
          <mxGeometry width="50" height="50" relative="1" as="geometry">
            <mxPoint x="-1560" y="1300" as="sourcePoint" />
            <mxPoint x="-1340" y="1030" as="targetPoint" />
          </mxGeometry>
        </mxCell>
        <mxCell id="B6wSNnZ_UUKkF3Okx7MM-20" style="rounded=0;orthogonalLoop=1;jettySize=auto;html=1;exitX=0.5;exitY=1;exitDx=0;exitDy=0;entryX=0.5;entryY=0;entryDx=0;entryDy=0;strokeWidth=3;dashed=1;jumpSize=16;endSize=16;endArrow=open;endFill=0;fontColor=#000000;fontSize=36;fontFamily=Times New Roman;" parent="oB7_KXZ4NShmShfg58jk-1" source="B6wSNnZ_UUKkF3Okx7MM-9" target="B6wSNnZ_UUKkF3Okx7MM-12" edge="1">
          <mxGeometry relative="1" as="geometry" />
        </mxCell>
        <mxCell id="B6wSNnZ_UUKkF3Okx7MM-21" value="&lt;span&gt;&amp;lt;&amp;lt; extend &amp;gt;&amp;gt;&lt;/span&gt;" style="edgeLabel;html=1;align=center;verticalAlign=middle;resizable=0;points=[];fontFamily=Times New Roman;fontSize=36;fontColor=#000000;labelBackgroundColor=default;" parent="B6wSNnZ_UUKkF3Okx7MM-20" vertex="1" connectable="0">
          <mxGeometry x="0.0118" y="-5" relative="1" as="geometry">
            <mxPoint x="29" y="-2" as="offset" />
          </mxGeometry>
        </mxCell>
        <mxCell id="B6wSNnZ_UUKkF3Okx7MM-22" value="Эколог" style="shape=umlActor;verticalLabelPosition=bottom;verticalAlign=top;html=1;outlineConnect=0;fontSize=36;strokeWidth=3;fontColor=#000000;fontFamily=Times New Roman;" parent="oB7_KXZ4NShmShfg58jk-1" vertex="1">
          <mxGeometry x="-1810" y="1230" width="70" height="130" as="geometry" />
        </mxCell>
        <mxCell id="B6wSNnZ_UUKkF3Okx7MM-23" value="" style="endArrow=block;html=1;rounded=0;fontSize=36;strokeWidth=3;endFill=0;arcSize=30;flowAnimation=0;endWidth=10.4;endSize=16;fontColor=#FF3333;fontFamily=Times New Roman;" parent="oB7_KXZ4NShmShfg58jk-1" edge="1">
          <mxGeometry width="50" height="50" relative="1" as="geometry">
            <mxPoint x="-1840" y="750" as="sourcePoint" />
            <mxPoint x="-1780" y="1220" as="targetPoint" />
          </mxGeometry>
        </mxCell>
        <mxCell id="B6wSNnZ_UUKkF3Okx7MM-24" value="Связывание вещества с источником выбросов" style="ellipse;whiteSpace=wrap;html=1;fontSize=36;strokeWidth=3;fontColor=#000000;fontFamily=Times New Roman;" parent="oB7_KXZ4NShmShfg58jk-1" vertex="1">
          <mxGeometry x="-1090" y="1850" width="420" height="120" as="geometry" />
        </mxCell>
        <mxCell id="B6wSNnZ_UUKkF3Okx7MM-25" value="Формирование экологических отчётов" style="ellipse;whiteSpace=wrap;html=1;fontSize=36;strokeWidth=3;fontColor=#000000;fontFamily=Times New Roman;" parent="oB7_KXZ4NShmShfg58jk-1" vertex="1">
          <mxGeometry x="-1660" y="1710" width="420" height="120" as="geometry" />
        </mxCell>
        <mxCell id="B6wSNnZ_UUKkF3Okx7MM-26" value="Проведение расчёта валовых выбросов" style="ellipse;whiteSpace=wrap;html=1;fontSize=36;strokeWidth=3;fontColor=#000000;fontFamily=Times New Roman;" parent="oB7_KXZ4NShmShfg58jk-1" vertex="1">
          <mxGeometry x="-1560" y="1930" width="400" height="120" as="geometry" />
        </mxCell>
        <mxCell id="B6wSNnZ_UUKkF3Okx7MM-28" style="rounded=0;orthogonalLoop=1;jettySize=auto;html=1;exitX=0.5;exitY=1;exitDx=0;exitDy=0;entryX=0.5;entryY=0;entryDx=0;entryDy=0;strokeWidth=3;dashed=1;jumpSize=16;endSize=16;endArrow=open;endFill=0;fontColor=#000000;fontSize=36;fontFamily=Times New Roman;" parent="oB7_KXZ4NShmShfg58jk-1" source="B6wSNnZ_UUKkF3Okx7MM-8" target="B6wSNnZ_UUKkF3Okx7MM-24" edge="1">
          <mxGeometry relative="1" as="geometry" />
        </mxCell>
        <mxCell id="B6wSNnZ_UUKkF3Okx7MM-29" value="&lt;span&gt;&amp;lt;&amp;lt; include &amp;gt;&amp;gt;&lt;/span&gt;" style="edgeLabel;html=1;align=center;verticalAlign=middle;resizable=0;points=[];fontFamily=Times New Roman;fontSize=32;fontColor=#000000;labelBackgroundColor=default;" parent="B6wSNnZ_UUKkF3Okx7MM-28" vertex="1" connectable="0">
          <mxGeometry x="0.0118" y="-5" relative="1" as="geometry">
            <mxPoint x="15" y="-24" as="offset" />
          </mxGeometry>
        </mxCell>
        <mxCell id="B6wSNnZ_UUKkF3Okx7MM-30" value="Управление удельными показателями" style="ellipse;whiteSpace=wrap;html=1;fontSize=36;strokeWidth=3;fontColor=#000000;fontFamily=Times New Roman;" parent="oB7_KXZ4NShmShfg58jk-1" vertex="1">
          <mxGeometry x="-2040" y="1910" width="420" height="120" as="geometry" />
        </mxCell>
        <mxCell id="B6wSNnZ_UUKkF3Okx7MM-31" value="Анализ параметров расчётов" style="ellipse;whiteSpace=wrap;html=1;fontSize=36;strokeWidth=3;fontColor=#000000;fontFamily=Times New Roman;" parent="oB7_KXZ4NShmShfg58jk-1" vertex="1">
          <mxGeometry x="-2030" y="1680" width="340" height="120" as="geometry" />
        </mxCell>
        <mxCell id="B6wSNnZ_UUKkF3Okx7MM-32" style="rounded=0;orthogonalLoop=1;jettySize=auto;html=1;exitX=0.5;exitY=1;exitDx=0;exitDy=0;entryX=0.5;entryY=0;entryDx=0;entryDy=0;strokeWidth=3;dashed=1;jumpSize=16;endSize=16;endArrow=open;endFill=0;fontColor=#000000;fontSize=36;fontFamily=Times New Roman;" parent="oB7_KXZ4NShmShfg58jk-1" source="B6wSNnZ_UUKkF3Okx7MM-31" target="B6wSNnZ_UUKkF3Okx7MM-30" edge="1">
          <mxGeometry relative="1" as="geometry" />
        </mxCell>
        <mxCell id="B6wSNnZ_UUKkF3Okx7MM-33" value="&lt;span&gt;&amp;lt;&amp;lt; include &amp;gt;&amp;gt;&lt;/span&gt;" style="edgeLabel;html=1;align=center;verticalAlign=middle;resizable=0;points=[];fontFamily=Times New Roman;fontSize=32;fontColor=#000000;labelBackgroundColor=default;" parent="B6wSNnZ_UUKkF3Okx7MM-32" vertex="1" connectable="0">
          <mxGeometry x="0.0118" y="-5" relative="1" as="geometry">
            <mxPoint x="29" y="-2" as="offset" />
          </mxGeometry>
        </mxCell>
        <mxCell id="B6wSNnZ_UUKkF3Okx7MM-34" style="rounded=0;orthogonalLoop=1;jettySize=auto;html=1;exitX=0.5;exitY=1;exitDx=0;exitDy=0;entryX=0.5;entryY=0;entryDx=0;entryDy=0;strokeWidth=3;dashed=1;jumpSize=16;endSize=16;endArrow=open;endFill=0;fontColor=#000000;fontSize=36;fontFamily=Times New Roman;" parent="oB7_KXZ4NShmShfg58jk-1" source="B6wSNnZ_UUKkF3Okx7MM-25" target="B6wSNnZ_UUKkF3Okx7MM-26" edge="1">
          <mxGeometry relative="1" as="geometry" />
        </mxCell>
        <mxCell id="B6wSNnZ_UUKkF3Okx7MM-35" value="&lt;span&gt;&amp;lt;&amp;lt; extend &amp;gt;&amp;gt;&lt;/span&gt;" style="edgeLabel;html=1;align=center;verticalAlign=middle;resizable=0;points=[];fontFamily=Times New Roman;fontSize=32;fontColor=#000000;labelBackgroundColor=default;" parent="B6wSNnZ_UUKkF3Okx7MM-34" vertex="1" connectable="0">
          <mxGeometry x="0.0118" y="-5" relative="1" as="geometry">
            <mxPoint x="-4" y="-5" as="offset" />
          </mxGeometry>
        </mxCell>
        <mxCell id="B6wSNnZ_UUKkF3Okx7MM-36" value="" style="endArrow=open;html=1;rounded=0;fontSize=36;strokeWidth=3;endFill=0;arcSize=30;flowAnimation=0;entryX=0;entryY=0.5;entryDx=0;entryDy=0;endSize=16;startFill=0;fontColor=#FF3333;fontFamily=Times New Roman;" parent="oB7_KXZ4NShmShfg58jk-1" target="B6wSNnZ_UUKkF3Okx7MM-8" edge="1">
          <mxGeometry width="50" height="50" relative="1" as="geometry">
            <mxPoint x="-1780" y="1410" as="sourcePoint" />
            <mxPoint x="-1340" y="1030" as="targetPoint" />
          </mxGeometry>
        </mxCell>
        <mxCell id="B6wSNnZ_UUKkF3Okx7MM-37" value="" style="endArrow=open;html=1;rounded=0;fontSize=36;strokeWidth=3;endFill=0;arcSize=30;flowAnimation=0;entryX=0.281;entryY=0.048;entryDx=0;entryDy=0;endSize=16;startFill=0;fontColor=#FF3333;entryPerimeter=0;fontFamily=Times New Roman;" parent="oB7_KXZ4NShmShfg58jk-1" target="B6wSNnZ_UUKkF3Okx7MM-25" edge="1">
          <mxGeometry width="50" height="50" relative="1" as="geometry">
            <mxPoint x="-1780" y="1410" as="sourcePoint" />
            <mxPoint x="-1340" y="1030" as="targetPoint" />
          </mxGeometry>
        </mxCell>
        <mxCell id="B6wSNnZ_UUKkF3Okx7MM-38" value="" style="endArrow=open;html=1;rounded=0;fontSize=36;strokeWidth=3;endFill=0;arcSize=30;flowAnimation=0;entryX=0.5;entryY=0;entryDx=0;entryDy=0;endSize=16;startFill=0;fontColor=#FF3333;fontFamily=Times New Roman;" parent="oB7_KXZ4NShmShfg58jk-1" target="B6wSNnZ_UUKkF3Okx7MM-31" edge="1">
          <mxGeometry width="50" height="50" relative="1" as="geometry">
            <mxPoint x="-1780" y="1410" as="sourcePoint" />
            <mxPoint x="-1340" y="1030" as="targetPoint" />
          </mxGeometry>
        </mxCell>
        <mxCell id="B6wSNnZ_UUKkF3Okx7MM-41" value="Бухгалтер" style="shape=umlActor;verticalLabelPosition=bottom;verticalAlign=top;html=1;outlineConnect=0;fontSize=36;strokeWidth=3;fontColor=#000000;fontFamily=Times New Roman;" parent="oB7_KXZ4NShmShfg58jk-1" vertex="1">
          <mxGeometry x="-1970" y="1205" width="70" height="130" as="geometry" />
        </mxCell>
        <mxCell id="B6wSNnZ_UUKkF3Okx7MM-42" value="" style="endArrow=block;html=1;rounded=0;fontSize=36;strokeWidth=3;endFill=0;arcSize=30;flowAnimation=0;endWidth=10.4;endSize=16;fontColor=#FF3333;fontFamily=Times New Roman;" parent="oB7_KXZ4NShmShfg58jk-1" edge="1">
          <mxGeometry width="50" height="50" relative="1" as="geometry">
            <mxPoint x="-1840" y="750" as="sourcePoint" />
            <mxPoint x="-1930" y="1200" as="targetPoint" />
          </mxGeometry>
        </mxCell>
        <mxCell id="B6wSNnZ_UUKkF3Okx7MM-43" value="Руководитель&amp;nbsp;&lt;div&gt;предприятия&lt;/div&gt;" style="shape=umlActor;verticalLabelPosition=bottom;verticalAlign=top;html=1;outlineConnect=0;fontSize=36;strokeWidth=3;fontColor=#000000;fontFamily=Times New Roman;" parent="oB7_KXZ4NShmShfg58jk-1" vertex="1">
          <mxGeometry x="-2170" y="890" width="70" height="130" as="geometry" />
        </mxCell>
        <mxCell id="B6wSNnZ_UUKkF3Okx7MM-44" value="Управление налогами" style="ellipse;whiteSpace=wrap;html=1;fontSize=36;strokeWidth=3;fontColor=#000000;strokeColor=#000000;fontFamily=Times New Roman;" parent="oB7_KXZ4NShmShfg58jk-1" vertex="1">
          <mxGeometry x="-2720" y="1620" width="320" height="120" as="geometry" />
        </mxCell>
        <mxCell id="B6wSNnZ_UUKkF3Okx7MM-45" value="Формирование&amp;nbsp;&lt;div&gt;финансовой отчётности&lt;/div&gt;" style="ellipse;whiteSpace=wrap;html=1;fontSize=36;strokeWidth=3;fontColor=#000000;strokeColor=#000000;fontFamily=Times New Roman;" parent="oB7_KXZ4NShmShfg58jk-1" vertex="1">
          <mxGeometry x="-2980" y="1400" width="470" height="120" as="geometry" />
        </mxCell>
        <mxCell id="B6wSNnZ_UUKkF3Okx7MM-46" value="Расчёт налогов на основе выбросов" style="ellipse;whiteSpace=wrap;html=1;fontSize=36;strokeWidth=3;fontColor=#000000;strokeColor=#000000;fontFamily=Times New Roman;" parent="oB7_KXZ4NShmShfg58jk-1" vertex="1">
          <mxGeometry x="-2385" y="1810" width="340" height="120" as="geometry" />
        </mxCell>
        <mxCell id="B6wSNnZ_UUKkF3Okx7MM-47" style="rounded=0;orthogonalLoop=1;jettySize=auto;html=1;exitX=1;exitY=1;exitDx=0;exitDy=0;strokeWidth=3;dashed=1;jumpSize=16;endSize=16;endArrow=open;endFill=0;fontColor=#000000;fontSize=36;entryX=0.5;entryY=0;entryDx=0;entryDy=0;fontFamily=Times New Roman;" parent="oB7_KXZ4NShmShfg58jk-1" source="B6wSNnZ_UUKkF3Okx7MM-45" target="B6wSNnZ_UUKkF3Okx7MM-44" edge="1">
          <mxGeometry relative="1" as="geometry">
            <mxPoint x="-1960" y="1800" as="targetPoint" />
          </mxGeometry>
        </mxCell>
        <mxCell id="B6wSNnZ_UUKkF3Okx7MM-48" value="&lt;span&gt;&amp;lt;&amp;lt; extend &amp;gt;&amp;gt;&lt;/span&gt;" style="edgeLabel;html=1;align=center;verticalAlign=middle;resizable=0;points=[];fontFamily=Times New Roman;fontSize=32;fontColor=#000000;labelBackgroundColor=default;" parent="B6wSNnZ_UUKkF3Okx7MM-47" vertex="1" connectable="0">
          <mxGeometry x="0.0118" y="-5" relative="1" as="geometry">
            <mxPoint x="-4" y="-5" as="offset" />
          </mxGeometry>
        </mxCell>
        <mxCell id="B6wSNnZ_UUKkF3Okx7MM-49" style="rounded=0;orthogonalLoop=1;jettySize=auto;html=1;exitX=1;exitY=1;exitDx=0;exitDy=0;entryX=0.26;entryY=0.083;entryDx=0;entryDy=0;strokeWidth=3;dashed=1;jumpSize=16;endSize=16;endArrow=open;endFill=0;fontColor=#000000;fontSize=36;entryPerimeter=0;fontFamily=Times New Roman;" parent="oB7_KXZ4NShmShfg58jk-1" source="B6wSNnZ_UUKkF3Okx7MM-44" target="B6wSNnZ_UUKkF3Okx7MM-46" edge="1">
          <mxGeometry relative="1" as="geometry" />
        </mxCell>
        <mxCell id="B6wSNnZ_UUKkF3Okx7MM-50" value="&lt;span&gt;&amp;lt;&amp;lt; include &amp;gt;&amp;gt;&lt;/span&gt;" style="edgeLabel;html=1;align=center;verticalAlign=middle;resizable=0;points=[];fontFamily=Times New Roman;fontSize=32;fontColor=#000000;labelBackgroundColor=default;" parent="B6wSNnZ_UUKkF3Okx7MM-49" vertex="1" connectable="0">
          <mxGeometry x="0.0118" y="-5" relative="1" as="geometry">
            <mxPoint x="29" y="-2" as="offset" />
          </mxGeometry>
        </mxCell>
        <mxCell id="B6wSNnZ_UUKkF3Okx7MM-51" value="" style="endArrow=open;html=1;rounded=0;fontSize=36;strokeWidth=3;endFill=0;arcSize=30;flowAnimation=0;entryX=1;entryY=0;entryDx=0;entryDy=0;endSize=16;startFill=0;fontColor=#FF3333;fontFamily=Times New Roman;" parent="oB7_KXZ4NShmShfg58jk-1" target="B6wSNnZ_UUKkF3Okx7MM-44" edge="1">
          <mxGeometry width="50" height="50" relative="1" as="geometry">
            <mxPoint x="-2050" y="1310" as="sourcePoint" />
            <mxPoint x="-1710" y="1840" as="targetPoint" />
          </mxGeometry>
        </mxCell>
        <mxCell id="B6wSNnZ_UUKkF3Okx7MM-52" value="" style="endArrow=open;html=1;rounded=0;fontSize=36;strokeWidth=3;endFill=0;arcSize=30;flowAnimation=0;entryX=1;entryY=0;entryDx=0;entryDy=0;endSize=16;startFill=0;fontColor=#FF3333;fontFamily=Times New Roman;" parent="oB7_KXZ4NShmShfg58jk-1" target="B6wSNnZ_UUKkF3Okx7MM-45" edge="1">
          <mxGeometry width="50" height="50" relative="1" as="geometry">
            <mxPoint x="-2050" y="1310" as="sourcePoint" />
            <mxPoint x="-1710" y="1840" as="targetPoint" />
          </mxGeometry>
        </mxCell>
        <mxCell id="B6wSNnZ_UUKkF3Okx7MM-53" value="" style="endArrow=open;html=1;rounded=0;fontSize=36;strokeWidth=3;endFill=0;arcSize=30;flowAnimation=0;entryX=0.5;entryY=0;entryDx=0;entryDy=0;endSize=16;startFill=0;fontColor=#FF3333;fontFamily=Times New Roman;" parent="oB7_KXZ4NShmShfg58jk-1" target="B6wSNnZ_UUKkF3Okx7MM-46" edge="1">
          <mxGeometry width="50" height="50" relative="1" as="geometry">
            <mxPoint x="-2050" y="1310" as="sourcePoint" />
            <mxPoint x="-1710" y="1840" as="targetPoint" />
          </mxGeometry>
        </mxCell>
        <mxCell id="B6wSNnZ_UUKkF3Okx7MM-54" value="Просмотр данных&amp;nbsp;&lt;div&gt;валовых выбросов&lt;/div&gt;" style="ellipse;whiteSpace=wrap;html=1;fontSize=36;strokeWidth=3;fontColor=#000000;strokeColor=#000000;fontFamily=Times New Roman;" parent="oB7_KXZ4NShmShfg58jk-1" vertex="1">
          <mxGeometry x="-3100" y="1010" width="420" height="120" as="geometry" />
        </mxCell>
        <mxCell id="B6wSNnZ_UUKkF3Okx7MM-55" style="rounded=0;orthogonalLoop=1;jettySize=auto;html=1;exitX=0.5;exitY=1;exitDx=0;exitDy=0;entryX=0.5;entryY=0;entryDx=0;entryDy=0;strokeWidth=3;dashed=1;jumpSize=16;endSize=16;endArrow=open;endFill=0;fontColor=#000000;fontSize=36;fontFamily=Times New Roman;" parent="oB7_KXZ4NShmShfg58jk-1" source="i2Dvd7qV98ovRYp389tE-15" target="B6wSNnZ_UUKkF3Okx7MM-54" edge="1">
          <mxGeometry relative="1" as="geometry" />
        </mxCell>
        <mxCell id="B6wSNnZ_UUKkF3Okx7MM-56" value="&lt;span&gt;&amp;lt;&amp;lt; include &amp;gt;&amp;gt;&lt;/span&gt;" style="edgeLabel;html=1;align=center;verticalAlign=middle;resizable=0;points=[];fontFamily=Times New Roman;fontSize=32;fontColor=#000000;labelBackgroundColor=default;" parent="B6wSNnZ_UUKkF3Okx7MM-55" vertex="1" connectable="0">
          <mxGeometry x="0.0118" y="-5" relative="1" as="geometry">
            <mxPoint x="29" y="-2" as="offset" />
          </mxGeometry>
        </mxCell>
        <mxCell id="B6wSNnZ_UUKkF3Okx7MM-57" value="Анализ отчётов" style="ellipse;whiteSpace=wrap;html=1;fontSize=36;strokeWidth=3;fontColor=#000000;strokeColor=#000000;fontFamily=Times New Roman;" parent="oB7_KXZ4NShmShfg58jk-1" vertex="1">
          <mxGeometry x="-3030" y="1215" width="420" height="120" as="geometry" />
        </mxCell>
        <mxCell id="B6wSNnZ_UUKkF3Okx7MM-58" style="rounded=0;orthogonalLoop=1;jettySize=auto;html=1;exitX=0.5;exitY=1;exitDx=0;exitDy=0;strokeWidth=3;dashed=1;jumpSize=16;endSize=16;endArrow=open;endFill=0;fontColor=#000000;fontSize=36;entryX=0.5;entryY=0;entryDx=0;entryDy=0;fontFamily=Times New Roman;" parent="oB7_KXZ4NShmShfg58jk-1" source="B6wSNnZ_UUKkF3Okx7MM-54" target="B6wSNnZ_UUKkF3Okx7MM-57" edge="1">
          <mxGeometry relative="1" as="geometry">
            <mxPoint x="-1960" y="1800" as="targetPoint" />
          </mxGeometry>
        </mxCell>
        <mxCell id="B6wSNnZ_UUKkF3Okx7MM-59" value="&lt;span&gt;&amp;lt;&amp;lt; extend &amp;gt;&amp;gt;&lt;/span&gt;" style="edgeLabel;html=1;align=center;verticalAlign=middle;resizable=0;points=[];fontFamily=Times New Roman;fontSize=32;fontColor=#000000;labelBackgroundColor=default;" parent="B6wSNnZ_UUKkF3Okx7MM-58" vertex="1" connectable="0">
          <mxGeometry x="0.0118" y="-5" relative="1" as="geometry">
            <mxPoint x="-4" y="-5" as="offset" />
          </mxGeometry>
        </mxCell>
        <mxCell id="k1_v67e8rPetnx1T1DjH-0" value="" style="endArrow=block;html=1;rounded=0;fontSize=36;strokeWidth=3;endFill=0;arcSize=30;flowAnimation=0;endWidth=10.4;endSize=16;fontColor=#FF3333;fontFamily=Times New Roman;" parent="oB7_KXZ4NShmShfg58jk-1" edge="1">
          <mxGeometry width="50" height="50" relative="1" as="geometry">
            <mxPoint x="-1840" y="750" as="sourcePoint" />
            <mxPoint x="-2070" y="960" as="targetPoint" />
          </mxGeometry>
        </mxCell>
      </root>
    </mxGraphModel>
  </diagram>
  <diagram name="Для слайда" id="buFfReMyQXs6j8XQs9fw">
    <mxGraphModel dx="4987" dy="1181" grid="1" gridSize="10" guides="1" tooltips="1" connect="1" arrows="1" fold="1" page="1" pageScale="1" pageWidth="3300" pageHeight="2339" math="0" shadow="0">
      <root>
        <mxCell id="tE8gXd_vtOIvoj46xShd-0" />
        <mxCell id="tE8gXd_vtOIvoj46xShd-1" parent="tE8gXd_vtOIvoj46xShd-0" />
        <mxCell id="tE8gXd_vtOIvoj46xShd-3" value="Администратор" style="shape=umlActor;verticalLabelPosition=bottom;verticalAlign=top;html=1;outlineConnect=0;fontSize=39;strokeWidth=3;fontColor=#000000;fontFamily=Times New Roman;" vertex="1" parent="tE8gXd_vtOIvoj46xShd-1">
          <mxGeometry x="-1794" y="576" width="70" height="130" as="geometry" />
        </mxCell>
        <mxCell id="tE8gXd_vtOIvoj46xShd-4" value="Оператор" style="shape=umlActor;verticalLabelPosition=bottom;verticalAlign=top;html=1;outlineConnect=0;fontSize=39;strokeWidth=3;fontColor=#000000;fontFamily=Times New Roman;" vertex="1" parent="tE8gXd_vtOIvoj46xShd-1">
          <mxGeometry x="-1710" y="960" width="70" height="130" as="geometry" />
        </mxCell>
        <mxCell id="tE8gXd_vtOIvoj46xShd-5" value="Регистрация пользователей &lt;br&gt;и управление их&amp;nbsp;&lt;span style=&quot;background-color: transparent;&quot;&gt;ролями&lt;/span&gt;" style="ellipse;whiteSpace=wrap;html=1;fontSize=39;strokeWidth=3;fontColor=#000000;fontFamily=Times New Roman;" vertex="1" parent="tE8gXd_vtOIvoj46xShd-1">
          <mxGeometry x="-1490" y="810" width="500" height="150" as="geometry" />
        </mxCell>
        <mxCell id="tE8gXd_vtOIvoj46xShd-9" value="Просмотр статистики" style="ellipse;whiteSpace=wrap;html=1;fontSize=39;strokeWidth=3;fontColor=#000000;strokeColor=#000000;fontFamily=Times New Roman;" vertex="1" parent="tE8gXd_vtOIvoj46xShd-1">
          <mxGeometry x="-2530" y="1020" width="420" height="100" as="geometry" />
        </mxCell>
        <mxCell id="tE8gXd_vtOIvoj46xShd-12" value="Управление справочниками предметной области" style="ellipse;whiteSpace=wrap;html=1;fontSize=39;strokeWidth=3;fontColor=#000000;fontFamily=Times New Roman;" vertex="1" parent="tE8gXd_vtOIvoj46xShd-1">
          <mxGeometry x="-1530" y="980" width="480" height="170" as="geometry" />
        </mxCell>
        <mxCell id="tE8gXd_vtOIvoj46xShd-17" value="" style="endArrow=block;html=1;rounded=0;fontSize=39;strokeWidth=3;endFill=0;arcSize=30;flowAnimation=0;endWidth=10.4;endSize=16;fontColor=#FF3333;fontFamily=Times New Roman;" edge="1" parent="tE8gXd_vtOIvoj46xShd-1">
          <mxGeometry width="50" height="50" relative="1" as="geometry">
            <mxPoint x="-1810" y="760" as="sourcePoint" />
            <mxPoint x="-1680" y="950" as="targetPoint" />
          </mxGeometry>
        </mxCell>
        <mxCell id="tE8gXd_vtOIvoj46xShd-18" value="" style="endArrow=open;html=1;rounded=0;fontSize=39;strokeWidth=3;endFill=0;arcSize=30;flowAnimation=0;entryX=0;entryY=0.5;entryDx=0;entryDy=0;endSize=16;startFill=0;fontColor=#000000;fontFamily=Times New Roman;" edge="1" parent="tE8gXd_vtOIvoj46xShd-1" target="tE8gXd_vtOIvoj46xShd-5">
          <mxGeometry width="50" height="50" relative="1" as="geometry">
            <mxPoint x="-1620" y="730" as="sourcePoint" />
            <mxPoint x="-1580" y="840" as="targetPoint" />
          </mxGeometry>
        </mxCell>
        <mxCell id="tE8gXd_vtOIvoj46xShd-19" value="" style="endArrow=open;html=1;rounded=0;fontSize=39;strokeWidth=3;endFill=0;arcSize=30;flowAnimation=0;entryX=0.067;entryY=0.247;entryDx=0;entryDy=0;endSize=16;startFill=0;fontColor=#000000;fontFamily=Times New Roman;entryPerimeter=0;" edge="1" parent="tE8gXd_vtOIvoj46xShd-1" target="tE8gXd_vtOIvoj46xShd-12">
          <mxGeometry width="50" height="50" relative="1" as="geometry">
            <mxPoint x="-1620" y="730" as="sourcePoint" />
            <mxPoint x="-1580" y="840" as="targetPoint" />
          </mxGeometry>
        </mxCell>
        <mxCell id="tE8gXd_vtOIvoj46xShd-21" value="" style="endArrow=open;html=1;rounded=0;fontSize=39;strokeWidth=3;endFill=0;arcSize=30;flowAnimation=0;entryX=0.479;entryY=0.002;entryDx=0;entryDy=0;endSize=16;startFill=0;fontColor=#FF3333;fontFamily=Times New Roman;entryPerimeter=0;" edge="1" parent="tE8gXd_vtOIvoj46xShd-1" target="tE8gXd_vtOIvoj46xShd-9">
          <mxGeometry width="50" height="50" relative="1" as="geometry">
            <mxPoint x="-2220" y="960" as="sourcePoint" />
            <mxPoint x="-2240" y="600" as="targetPoint" />
          </mxGeometry>
        </mxCell>
        <mxCell id="tE8gXd_vtOIvoj46xShd-22" value="" style="endArrow=open;html=1;rounded=0;fontSize=39;strokeWidth=3;endFill=0;arcSize=30;flowAnimation=0;entryX=0.758;entryY=0.989;entryDx=0;entryDy=0;endSize=16;startFill=0;entryPerimeter=0;fontColor=#FF3333;fontFamily=Times New Roman;" edge="1" parent="tE8gXd_vtOIvoj46xShd-1" target="tE8gXd_vtOIvoj46xShd-9">
          <mxGeometry width="50" height="50" relative="1" as="geometry">
            <mxPoint x="-2090" y="1160" as="sourcePoint" />
            <mxPoint x="-2250" y="720" as="targetPoint" />
          </mxGeometry>
        </mxCell>
        <mxCell id="tE8gXd_vtOIvoj46xShd-29" value="Учёт выбросов загрязняющих веществ" style="ellipse;whiteSpace=wrap;html=1;fontSize=39;strokeWidth=3;fontColor=#000000;fontFamily=Times New Roman;" vertex="1" parent="tE8gXd_vtOIvoj46xShd-1">
          <mxGeometry x="-1650" y="1240" width="450" height="140" as="geometry" />
        </mxCell>
        <mxCell id="tE8gXd_vtOIvoj46xShd-34" value="Обеспечение работоспособности приложения" style="ellipse;whiteSpace=wrap;html=1;fontSize=39;strokeWidth=3;fontColor=#000000;fontFamily=Times New Roman;" vertex="1" parent="tE8gXd_vtOIvoj46xShd-1">
          <mxGeometry x="-1465" y="660" width="450" height="140" as="geometry" />
        </mxCell>
        <mxCell id="tE8gXd_vtOIvoj46xShd-35" value="" style="endArrow=open;html=1;rounded=0;fontSize=39;strokeWidth=3;endFill=0;arcSize=30;flowAnimation=0;entryX=0;entryY=0.5;entryDx=0;entryDy=0;endSize=16;startFill=0;fontColor=#000000;fontFamily=Times New Roman;" edge="1" parent="tE8gXd_vtOIvoj46xShd-1" target="tE8gXd_vtOIvoj46xShd-34">
          <mxGeometry width="50" height="50" relative="1" as="geometry">
            <mxPoint x="-1620" y="730" as="sourcePoint" />
            <mxPoint x="-1580" y="840" as="targetPoint" />
          </mxGeometry>
        </mxCell>
        <mxCell id="tE8gXd_vtOIvoj46xShd-40" value="" style="endArrow=open;html=1;rounded=0;fontSize=39;strokeWidth=3;endFill=0;arcSize=30;flowAnimation=0;entryX=0;entryY=0.5;entryDx=0;entryDy=0;endSize=16;startFill=0;fontColor=#FF3333;fontFamily=Times New Roman;" edge="1" parent="tE8gXd_vtOIvoj46xShd-1" target="tE8gXd_vtOIvoj46xShd-12">
          <mxGeometry width="50" height="50" relative="1" as="geometry">
            <mxPoint x="-1620" y="1030" as="sourcePoint" />
            <mxPoint x="-1260" y="1230" as="targetPoint" />
          </mxGeometry>
        </mxCell>
        <mxCell id="tE8gXd_vtOIvoj46xShd-43" value="Эколог" style="shape=umlActor;verticalLabelPosition=bottom;verticalAlign=top;html=1;outlineConnect=0;fontSize=39;strokeWidth=3;fontColor=#000000;fontFamily=Times New Roman;" vertex="1" parent="tE8gXd_vtOIvoj46xShd-1">
          <mxGeometry x="-1865" y="1000" width="70" height="130" as="geometry" />
        </mxCell>
        <mxCell id="tE8gXd_vtOIvoj46xShd-44" value="" style="endArrow=block;html=1;rounded=0;fontSize=39;strokeWidth=3;endFill=0;arcSize=30;flowAnimation=0;endWidth=10.4;endSize=16;fontColor=#FF3333;fontFamily=Times New Roman;" edge="1" parent="tE8gXd_vtOIvoj46xShd-1">
          <mxGeometry width="50" height="50" relative="1" as="geometry">
            <mxPoint x="-1810" y="760" as="sourcePoint" />
            <mxPoint x="-1830" y="980" as="targetPoint" />
          </mxGeometry>
        </mxCell>
        <mxCell id="tE8gXd_vtOIvoj46xShd-46" value="Проведение расчёта валовых выбросов" style="ellipse;whiteSpace=wrap;html=1;fontSize=39;strokeWidth=3;fontColor=#000000;fontFamily=Times New Roman;" vertex="1" parent="tE8gXd_vtOIvoj46xShd-1">
          <mxGeometry x="-1850" y="1400" width="420" height="120" as="geometry" />
        </mxCell>
        <mxCell id="tE8gXd_vtOIvoj46xShd-51" value="Управление параметрами &lt;br&gt;расчётов" style="ellipse;whiteSpace=wrap;html=1;fontSize=39;strokeWidth=3;fontColor=#000000;fontFamily=Times New Roman;" vertex="1" parent="tE8gXd_vtOIvoj46xShd-1">
          <mxGeometry x="-2150" y="1280" width="300" height="170" as="geometry" />
        </mxCell>
        <mxCell id="tE8gXd_vtOIvoj46xShd-56" value="" style="endArrow=open;html=1;rounded=0;fontSize=39;strokeWidth=3;endFill=0;arcSize=30;flowAnimation=0;entryX=0;entryY=0.5;entryDx=0;entryDy=0;endSize=16;startFill=0;fontColor=#FF3333;fontFamily=Times New Roman;" edge="1" parent="tE8gXd_vtOIvoj46xShd-1" target="tE8gXd_vtOIvoj46xShd-29">
          <mxGeometry width="50" height="50" relative="1" as="geometry">
            <mxPoint x="-1830" y="1190" as="sourcePoint" />
            <mxPoint x="-1340" y="1030" as="targetPoint" />
          </mxGeometry>
        </mxCell>
        <mxCell id="tE8gXd_vtOIvoj46xShd-57" value="" style="endArrow=open;html=1;rounded=0;fontSize=39;strokeWidth=3;endFill=0;arcSize=30;flowAnimation=0;entryX=0.281;entryY=0.048;entryDx=0;entryDy=0;endSize=16;startFill=0;fontColor=#FF3333;entryPerimeter=0;fontFamily=Times New Roman;" edge="1" parent="tE8gXd_vtOIvoj46xShd-1" target="tE8gXd_vtOIvoj46xShd-46">
          <mxGeometry width="50" height="50" relative="1" as="geometry">
            <mxPoint x="-1830" y="1190" as="sourcePoint" />
            <mxPoint x="-1340" y="1030" as="targetPoint" />
          </mxGeometry>
        </mxCell>
        <mxCell id="tE8gXd_vtOIvoj46xShd-58" value="" style="endArrow=open;html=1;rounded=0;fontSize=39;strokeWidth=3;endFill=0;arcSize=30;flowAnimation=0;entryX=0.5;entryY=0;entryDx=0;entryDy=0;endSize=16;startFill=0;fontColor=#FF3333;fontFamily=Times New Roman;" edge="1" parent="tE8gXd_vtOIvoj46xShd-1" target="tE8gXd_vtOIvoj46xShd-51">
          <mxGeometry width="50" height="50" relative="1" as="geometry">
            <mxPoint x="-1830" y="1190" as="sourcePoint" />
            <mxPoint x="-1340" y="1030" as="targetPoint" />
          </mxGeometry>
        </mxCell>
        <mxCell id="tE8gXd_vtOIvoj46xShd-59" value="Бухгалтер" style="shape=umlActor;verticalLabelPosition=bottom;verticalAlign=top;html=1;outlineConnect=0;fontSize=39;strokeWidth=3;fontColor=#000000;fontFamily=Times New Roman;" vertex="1" parent="tE8gXd_vtOIvoj46xShd-1">
          <mxGeometry x="-2020" y="970" width="70" height="130" as="geometry" />
        </mxCell>
        <mxCell id="tE8gXd_vtOIvoj46xShd-60" value="" style="endArrow=block;html=1;rounded=0;fontSize=39;strokeWidth=3;endFill=0;arcSize=30;flowAnimation=0;endWidth=10.4;endSize=16;fontColor=#FF3333;fontFamily=Times New Roman;" edge="1" parent="tE8gXd_vtOIvoj46xShd-1">
          <mxGeometry width="50" height="50" relative="1" as="geometry">
            <mxPoint x="-1810" y="760" as="sourcePoint" />
            <mxPoint x="-1980" y="960" as="targetPoint" />
          </mxGeometry>
        </mxCell>
        <mxCell id="tE8gXd_vtOIvoj46xShd-61" value="Руководитель&amp;nbsp;&lt;div&gt;предприятия&lt;/div&gt;" style="shape=umlActor;verticalLabelPosition=bottom;verticalAlign=top;html=1;outlineConnect=0;fontSize=39;strokeWidth=3;fontColor=#000000;fontFamily=Times New Roman;" vertex="1" parent="tE8gXd_vtOIvoj46xShd-1">
          <mxGeometry x="-2200" y="720" width="70" height="130" as="geometry" />
        </mxCell>
        <mxCell id="tE8gXd_vtOIvoj46xShd-62" value="Управление налогами" style="ellipse;whiteSpace=wrap;html=1;fontSize=39;strokeWidth=3;fontColor=#000000;strokeColor=#000000;fontFamily=Times New Roman;" vertex="1" parent="tE8gXd_vtOIvoj46xShd-1">
          <mxGeometry x="-2450" y="1180" width="320" height="120" as="geometry" />
        </mxCell>
        <mxCell id="tE8gXd_vtOIvoj46xShd-69" value="" style="endArrow=open;html=1;rounded=0;fontSize=39;strokeWidth=3;endFill=0;arcSize=30;flowAnimation=0;entryX=1;entryY=0;entryDx=0;entryDy=0;endSize=16;startFill=0;fontColor=#FF3333;fontFamily=Times New Roman;" edge="1" parent="tE8gXd_vtOIvoj46xShd-1" target="tE8gXd_vtOIvoj46xShd-62">
          <mxGeometry width="50" height="50" relative="1" as="geometry">
            <mxPoint x="-2090" y="1160" as="sourcePoint" />
            <mxPoint x="-1710" y="1840" as="targetPoint" />
          </mxGeometry>
        </mxCell>
        <mxCell id="tE8gXd_vtOIvoj46xShd-78" value="" style="endArrow=block;html=1;rounded=0;fontSize=39;strokeWidth=3;endFill=0;arcSize=30;flowAnimation=0;endWidth=10.4;endSize=16;fontColor=#FF3333;fontFamily=Times New Roman;" edge="1" parent="tE8gXd_vtOIvoj46xShd-1">
          <mxGeometry width="50" height="50" relative="1" as="geometry">
            <mxPoint x="-1810" y="760" as="sourcePoint" />
            <mxPoint x="-2090" y="780" as="targetPoint" />
          </mxGeometry>
        </mxCell>
        <mxCell id="7TGf17SPUFa4iMNV2oaj-0" style="rounded=0;orthogonalLoop=1;jettySize=auto;html=1;exitX=0.5;exitY=0;exitDx=0;exitDy=0;entryX=0.5;entryY=1;entryDx=0;entryDy=0;strokeWidth=3;dashed=1;jumpSize=16;endSize=16;endArrow=open;endFill=0;fontColor=#000000;fontSize=36;fontFamily=Times New Roman;" edge="1" parent="tE8gXd_vtOIvoj46xShd-1" source="tE8gXd_vtOIvoj46xShd-29" target="tE8gXd_vtOIvoj46xShd-12">
          <mxGeometry relative="1" as="geometry">
            <mxPoint x="-1190" y="1320" as="sourcePoint" />
            <mxPoint x="-1100" y="1420" as="targetPoint" />
          </mxGeometry>
        </mxCell>
        <mxCell id="7TGf17SPUFa4iMNV2oaj-1" value="&lt;span&gt;&amp;lt;&amp;lt; extend &amp;gt;&amp;gt;&lt;/span&gt;" style="edgeLabel;html=1;align=center;verticalAlign=middle;resizable=0;points=[];fontFamily=Times New Roman;fontSize=32;fontColor=#000000;labelBackgroundColor=default;" vertex="1" connectable="0" parent="7TGf17SPUFa4iMNV2oaj-0">
          <mxGeometry x="0.0118" y="-5" relative="1" as="geometry">
            <mxPoint x="-4" y="-5" as="offset" />
          </mxGeometry>
        </mxCell>
      </root>
    </mxGraphModel>
  </diagram>
</mxfile>
